<?xml version="1.0" encoding="UTF-8"?>
<!DOCTYPE svg PUBLIC "-//W3C//DTD SVG 1.0//EN" "http://www.w3.org/TR/2001/REC-SVG-20010904/DTD/svg10.dtd">
<!-- Creator: CorelDRAW 2019 (64-Bit) -->
<svg xmlns="http://www.w3.org/2000/svg" xml:space="preserve" width="2900px" height="955px" version="1.0" style="shape-rendering:geometricPrecision; text-rendering:geometricPrecision; image-rendering:optimizeQuality; fill-rule:evenodd; clip-rule:evenodd"
viewBox="0 0 2900 955.47"
 xmlns:xlink="http://www.w3.org/1999/xlink"
 xmlns:xodm="http://www.corel.com/coreldraw/odm/2003">
 <defs>
  <style type="text/css">
   <![CDATA[
    .fil3 {fill:#F3828B}
    .fil4 {fill:#C94C59}
    .fil1 {fill:#6D5356}
    .fil0 {fill:#564444}
    .fil5 {fill:#E15C69;fill-rule:nonzero}
    .fil2 {fill:#564444;fill-rule:nonzero}
   ]]>
  </style>
 </defs>
 <g id="Layer_x0020_1">
  <metadata id="CorelCorpID_0Corel-Layer"/>
  <g id="_1720373310048">
   <path class="fil0" d="M1228.19 452.06c-51.09,-15.54 -132.86,-9.43 -175.83,-18.34 -32.76,-6.81 -45.63,-19.16 -56.02,-43.77 -0.14,-0.35 -35.52,99.71 22.04,191.86 -8.45,-4.16 -18.3,-8.04 -29.54,-11.63 -12.48,-3.98 -25.42,-5.97 -38.79,-5.97 -17.37,0 -33.1,3.98 -47.21,11.94 -10.13,-16.64 -18.09,-31.83 -23.87,-45.58 -5.8,-13.75 -8.69,-26.22 -8.69,-37.44 0,-7.23 1.27,-13.92 3.8,-20.07 0,-1.09 -6.51,0.91 -19.53,5.96 -13.02,5.07 -24.69,12.75 -35,23.07 -10.31,10.3 -15.46,23.96 -15.46,40.96 0,17.27 6.94,37.61 20.65,60.97 -6.78,10.05 -15.12,20.82 -25.25,32.34 -11.77,13.4 -25.05,24.8 -39.88,34.19 -7.96,5.08 -13.39,7.59 -16.28,7.59 -3.25,0 -5.61,-2.34 -7.05,-7.05 -1.46,-4.69 -2.54,-13.01 -3.26,-24.96l0 -23.32c0,-25.68 0.54,-53.35 1.63,-83.02 9.4,-9.4 17.36,-20.07 23.87,-32.01 11.21,-20.25 16.82,-43.58 16.82,-69.99 0,-9.04 -0.9,-19.89 -2.72,-32.56 -3.25,-21.7 -9.58,-40.69 -18.98,-56.97 -8.68,-13.38 -18.27,-23.51 -28.75,-30.39 -7.97,-5.42 -15.38,-8.95 -22.25,-10.58 -6.88,-1.62 -11.94,-2.44 -15.19,-2.44 -7.6,-0.35 -13.3,2.36 -17.09,8.14 -3.8,5.79 -6.44,13.21 -7.87,22.25 -1.46,9.04 -3.26,24.41 -5.43,46.12 -6.15,73.79 -9.22,136.19 -9.22,187.19 0,27.47 0.81,51.54 2.38,72.42 -0.74,1.09 -1.36,2.17 -2.11,3.26 -11.4,16.46 -22.88,28.68 -34.46,36.63 -7.24,5.07 -13.21,7.6 -17.9,7.6 -10.5,0 -15.74,-12.66 -15.74,-37.99 0,-18.44 2.17,-41.77 6.51,-69.98 0.36,-2.17 0.55,-5.24 0.55,-9.23 0,-15.55 -5.25,-26.22 -15.74,-32.01 -10.49,-5.78 -22.97,-8.68 -37.43,-8.68 -5.43,0 -9.86,0.18 -13.3,0.54 -3.44,0.37 -5.7,0.73 -6.78,1.09 0.36,0.73 0.54,2.53 0.54,5.42 0,6.15 -1.27,17.73 -3.8,34.72 -3.09,22.1 -5.06,40.75 -6.12,56.6 -0.41,0.77 -0.77,1.49 -1.2,2.27 -9.59,17.56 -21.62,34.46 -36.08,50.74 -7.96,9.03 -14.47,13.56 -19.53,13.56 -10.5,0 -15.73,-18.62 -15.73,-55.89 0,-14.1 0.89,-33.45 2.7,-58.05l0.55 -9.76c0,-23.52 -6.43,-39.61 -19.26,-48.29 -12.85,-8.68 -27.77,-13.03 -44.77,-13.03 -5.07,0.01 -9.67,0.28 -13.83,0.81 -4.16,0.55 -6.78,1.01 -7.87,1.36 1.09,4.71 1.63,11.04 1.63,19 0,7.59 -0.19,13.38 -0.54,17.36 -7.24,-1.44 -15.02,-2.17 -23.34,-2.17 -23.51,0 -44.85,5.97 -64.02,17.9 -12.67,7.59 -22.6,17.83 -29.83,30.66 -7.25,12.84 -10.86,25.59 -10.86,38.25 0,8.15 1.87,15.32 5.2,21.7 -0.59,0.92 -1.07,1.79 -1.67,2.72 -12.85,19.89 -24.52,34.18 -35,42.86 -6.15,5.07 -11.58,7.59 -16.27,7.59 -8.69,0 -14.3,-8.58 -16.83,-25.77 -2.53,-17.18 -3.8,-43.32 -3.8,-78.4l0 -51c0.73,-34.36 1.81,-65.83 3.26,-94.42l17.91 -2.17 17.36 -2.16 14.11 -2.17 11.39 -1.63c2.53,-0.36 4.61,-0.81 6.24,-1.36 1.63,-0.54 2.62,-0.81 2.98,-0.81l-1.08 -16.82 -9.77 0 -11.39 0 -14.65 0.54c-7.24,0 -12.85,0.19 -16.82,0.54l-15.19 0.55 2.71 -47.75 0.54 -9.77c0,-23.51 -6.42,-39.61 -19.26,-48.28 -12.84,-8.69 -27.77,-13.03 -44.76,-13.03 -5.07,0 -9.68,0.28 -13.84,0.81 -4.16,0.55 -6.78,1.01 -7.87,1.36 1.09,5.43 1.63,14.11 1.63,26.05 0,22.78 -1.45,55.34 -4.34,97.66l-2.17 0.55c-8.68,0.72 -15.02,1.44 -18.99,2.17l-16.82 2.16 -25.51 3.8 -7.04 1.08 -2.72 0.55 1.63 16.82 2.17 0 7.59 0 25.51 0c3.61,-0.35 9.4,-0.54 17.36,-0.54l17.9 -1.09c-3.25,52.09 -4.88,96.95 -4.88,134.57 0,48.81 3.35,87.81 10.04,116.92 6.69,29.11 18.36,44.03 35,44.76 31.46,2.53 60.31,-10.13 86.54,-37.98 15.79,-16.78 29.7,-34.81 42.15,-53.81 8.15,5.4 18.88,8.23 32.45,8.23 23.5,0 45.57,-10.31 66.19,-30.93 -0.36,5.07 -0.54,12.67 -0.54,22.79 0,23.52 3.34,41.97 10.04,55.34 6.69,13.38 18.53,20.08 35.54,20.08 32.91,0 61.58,-13.47 86,-40.43 12.47,-13.75 23.53,-28.1 33.26,-43 1,20.17 4.62,36.91 11.23,49.8 7.76,15.18 21.43,22.78 40.96,22.77 43.24,0.01 76.23,-17.05 99.33,-50.57 6.74,37.29 17.92,56 33.6,56l0.55 0c2.52,0 4.33,-0.17 5.42,-0.54 6.51,0 9.77,0 9.77,0 0,0 2.71,-1.26 8.13,-3.79 20.62,-7.6 41.33,-21.98 62.13,-43.14 20.79,-21.17 38.8,-42.77 53.98,-64.85 2.06,-2.98 3.97,-5.78 5.77,-8.46 3.93,5.8 7.82,11.42 11.59,16.6l-1.09 1.63c-6.15,11.58 -10.84,22.97 -14.1,34.19 -2.9,11.22 -4.35,23.33 -4.35,36.35 0,6.16 0.55,11.94 1.63,17.36 0,1.82 0.18,3.26 0.55,4.35l0 2.17 0.54 1.62 0.54 2.18 0 1.08 0.54 1.09 0.55 4.34c3.26,10.84 8.31,20.6 15.19,29.29 5.42,6.87 12.29,13.03 20.62,18.44 7.6,4.7 13.92,7.78 18.99,9.23 4.34,1.8 8.86,3.07 13.56,3.8 0.36,0.36 1.09,0.55 2.18,0.55l0.53 0c5.07,1.07 10.13,1.63 15.2,1.63 14.46,0 31.1,-4.71 49.92,-14.12 18.8,-11.21 28.21,-26.22 28.21,-45.03 0,-15.55 -5.07,-32.55 -15.19,-51 -10.13,-18.44 -25.5,-42.87 -46.12,-73.25 -4.7,-6.14 -11.39,-15.73 -20.08,-28.75 9.77,-8.68 23.15,-13.02 40.15,-13.02 11.58,0 23.51,1.72 35.82,5.15 12.29,3.44 22.59,7.06 30.92,10.86 4.77,2.17 8.52,3.9 11.27,5.18 30.12,38 78.28,73.21 153.99,97.61 129.15,41.63 250.57,14.2 273.45,-69.53 8.81,-32.24 52.78,-84.9 14.3,-92.24 -52.9,-10.1 -166.14,-61.22 -245.94,-85.46zm-484.32 -67.99l0 0c5.43,7.97 9.4,17.91 11.94,29.84 2.53,11.94 3.61,21.89 3.25,29.84 -0.36,7.97 -0.54,12.13 -0.54,12.49 -2.9,21.7 -10.49,41.06 -22.78,58.05 1.8,-38.7 4.52,-82.11 8.13,-130.22zm-399.88 223.54l0 0c-7.95,8.32 -16.54,15.56 -25.77,21.7 -9.22,6.16 -17.09,9.23 -23.6,9.23 -9.41,0 -14.11,-6.32 -14.11,-18.99 0,-16.99 7.32,-28.39 21.98,-34.18 14.65,-5.78 29.74,-8.68 45.3,-8.68 -1.08,6.87 -2.35,17.19 -3.8,30.92zm564.27 153.01l0 0c-1.81,6.51 -5.79,9.76 -11.93,9.76 -3.99,0 -7.6,-0.72 -10.85,-2.18l-3.26 -1.62c-6.51,-4.33 -11.4,-8.32 -14.65,-11.93 -5.07,-6.16 -8.5,-12.67 -10.31,-19.53l-3.25 -13.02 -1.63 -14.11c-0.36,-9.4 0.54,-19.34 2.71,-29.85 1.81,-7.95 4.15,-15 7.05,-21.16 17.73,23.53 30.2,41.34 37.44,53.45 7.23,12.13 10.85,24.15 10.85,36.08 0,5.06 -0.72,9.77 -2.17,14.11z"/>
   <path class="fil1" d="M1240.89 468.53c-87.06,-31.46 -171.35,-14.89 -234.16,-53.97 -0.47,-0.29 -51.64,146.5 208.8,244.88 125.05,47.24 237.44,32.16 252.52,-40.92 5.81,-28.13 43.19,-71.8 6.33,-81.35 -50.67,-13.13 -156.35,-40.77 -233.49,-68.64z"/>
   <path class="fil0" d="M1240.89 468.53c-8.55,-3.09 -17.09,-5.72 -25.57,-7.98 -8.83,0.31 -23.48,-1.24 -49.5,-2.51 -27.37,-1.33 -69.03,-2.91 -97.66,-8.93 -25.18,-5.28 -47.2,-12.48 -64.22,-23.21 -1.37,8.16 -2.38,20.32 -0.66,35.22 41.15,18.65 97.68,27.33 161.23,28.56 89.69,1.73 226.82,70.96 289.93,93.78 7.99,2.13 16.45,4.21 24.96,5.9 5.53,-11.99 10.89,-23.99 11.02,-33.63 -50.53,-2.57 -131.25,-40.75 -194.77,-68.81 -19.05,-6.02 -37.61,-12.2 -54.76,-18.39z"/>
   <path class="fil0" d="M1211.1 706.44c119.6,30.72 227.32,1.69 248.73,-76.68 2.7,-9.88 8.71,-21.69 14.63,-33.52 -10.11,-15.26 -26.2,-29.73 -45.34,-43.06 -72.36,-50.42 -188.22,-84.66 -188.22,-84.66 -5.34,4.04 45.68,39.81 11.88,107.71 -20.8,41.75 -48.37,90.85 -41.68,130.21z"/>
   <g>
    <path class="fil2" d="M1330.07 592.71l-47.29 4.12 0 0 -0.72 -6.56 -0.96 -6.33 -1.2 -6.09 -1.4 -5.87 -1.6 -5.66 -1.78 -5.45 -1.94 -5.24 -2.08 -5.04 -2.21 -4.84 -2.31 -4.65 -2.41 -4.46 -2.48 -4.27 -2.55 -4.08 -2.58 -3.88 -2.6 -3.71 -2.61 -3.52 -2.6 -3.33 -2.57 -3.15 -2.52 -2.98 -2.45 -2.79 -2.38 -2.62 -2.28 -2.46 -2.18 -2.3 -2.08 -2.16 -1.96 -2.04 -1.86 -1.95 -1.8 -1.94 -1.81 -2.06 -1.94 -2.47 -2.36 -3.7 -2.67 -7.32 1.67 -15.07 43.25 19.57 1.6 -13.92 -2.05 -5.76 -1.08 -1.75 -0.07 -0.11 0.64 0.72 1.16 1.26 1.58 1.65 1.92 1.99 2.2 2.29 2.45 2.58 2.65 2.85 2.83 3.13 2.97 3.39 3.1 3.65 3.18 3.91 3.26 4.18 3.3 4.45 3.31 4.72 3.31 4.99 3.28 5.26 3.22 5.54 3.14 5.81 3.04 6.09 2.9 6.38 2.75 6.65 2.56 6.94 2.35 7.21 2.12 7.49 1.86 7.77 1.57 8.05 1.27 8.31 0.93 8.57 0.01 0.01zm97.85 200.06l-14.07 45.34 0 0 -10.84 -3.72 -10.29 -4.22 -9.74 -4.73 -9.19 -5.2 -8.63 -5.66 -8.07 -6.09 -7.52 -6.48 -6.97 -6.85 -6.43 -7.17 -5.9 -7.45 -5.4 -7.71 -4.91 -7.92 -4.44 -8.11 -4.02 -8.26 -3.61 -8.38 -3.23 -8.49 -2.88 -8.57 -2.57 -8.63 -2.27 -8.68 -2.01 -8.7 -1.77 -8.71 -1.55 -8.7 -1.37 -8.68 -1.2 -8.64 -1.06 -8.57 -0.93 -8.51 -0.84 -8.41 -0.76 -8.3 -0.7 -8.18 -0.67 -8.02 -0.65 -7.86 -0.65 -7.68 47.29 -4.12 0.66 7.83 0.66 7.91 0.66 7.94 0.68 7.98 0.73 7.98 0.8 7.98 0.87 7.96 0.98 7.91 1.09 7.85 1.22 7.76 1.37 7.67 1.53 7.55 1.71 7.41 1.9 7.25 2.1 7.08 2.32 6.89 2.54 6.67 2.77 6.46 3.02 6.22 3.28 5.97 3.55 5.73 3.83 5.47 4.13 5.22 4.45 4.96 4.79 4.72 5.18 4.46 5.58 4.21 6.03 3.96 6.53 3.7 7.04 3.42 7.62 3.12 8.23 2.82 0 0zm68.11 -153.82l39.53 -26.28 0 0 6.39 10.37 5.54 10.57 4.69 10.71 3.87 10.81 3.05 10.86 2.27 10.87 1.5 10.84 0.75 10.76 0.04 10.65 -0.66 10.5 -1.32 10.31 -1.98 10.1 -2.6 9.84 -3.2 9.57 -3.79 9.24 -4.35 8.9 -4.91 8.51 -5.44 8.1 -5.97 7.65 -6.48 7.16 -6.98 6.62 -7.47 6.05 -7.94 5.41 -8.38 4.72 -8.82 3.98 -9.21 3.17 -9.55 2.3 -9.85 1.38 -10.06 0.4 -10.23 -0.6 -10.31 -1.64 -10.31 -2.67 14.07 -45.34 5.97 1.55 5.73 0.91 5.54 0.33 5.37 -0.22 5.22 -0.74 5.11 -1.23 5 -1.72 4.89 -2.21 4.78 -2.7 4.65 -3.17 4.49 -3.64 4.32 -4.1 4.11 -4.53 3.86 -4.96 3.6 -5.35 3.29 -5.71 2.95 -6.04 2.61 -6.35 2.21 -6.62 1.82 -6.86 1.38 -7.07 0.93 -7.24 0.46 -7.38 -0.02 -7.51 -0.53 -7.59 -1.06 -7.65 -1.6 -7.69 -2.17 -7.71 -2.75 -7.71 -3.37 -7.68 -4 -7.64 -4.68 -7.59 0 0zm-69.36 -62.22l25.67 -39.92 0 0 3.1 2 3.07 2.03 3.05 2.05 3.03 2.07 3.01 2.09 2.99 2.11 2.96 2.14 2.93 2.16 2.9 2.17 2.87 2.2 2.85 2.23 2.81 2.25 2.78 2.27 2.75 2.29 2.71 2.32 2.68 2.34 2.63 2.37 2.6 2.39 2.56 2.42 2.52 2.44 2.47 2.47 2.43 2.5 2.38 2.52 2.33 2.55 2.29 2.58 2.24 2.61 2.19 2.63 2.13 2.67 2.07 2.7 2.02 2.73 1.97 2.76 1.9 2.8 -39.53 26.28 -1.35 -1.99 -1.41 -1.99 -1.48 -1.99 -1.54 -2 -1.6 -2 -1.66 -2 -1.72 -2.01 -1.77 -2 -1.84 -2 -1.89 -2 -1.94 -2 -2 -1.99 -2.05 -1.99 -2.09 -1.99 -2.15 -1.97 -2.2 -1.98 -2.25 -1.96 -2.29 -1.96 -2.34 -1.96 -2.37 -1.94 -2.43 -1.93 -2.45 -1.92 -2.5 -1.92 -2.55 -1.91 -2.57 -1.89 -2.6 -1.88 -2.65 -1.87 -2.67 -1.86 -2.71 -1.85 -2.74 -1.83 -2.76 -1.83 -2.79 -1.81 0 0zm-163.86 -98.32l-43.25 -19.57 28.33 -12.98 0.44 0.13 1.04 0.31 1.66 0.51 2.25 0.7 2.82 0.88 3.35 1.07 3.87 1.26 4.35 1.44 4.81 1.62 5.25 1.79 5.65 1.97 6.05 2.15 6.4 2.32 6.73 2.49 7.04 2.66 7.33 2.82 7.59 3 7.82 3.15 8.02 3.32 8.21 3.48 8.37 3.64 8.5 3.79 8.61 3.96 8.69 4.1 8.75 4.27 8.79 4.41 8.79 4.57 8.78 4.72 8.75 4.88 8.68 5.03 8.59 5.18 8.47 5.33 -25.67 39.92 -7.7 -4.84 -7.85 -4.73 -7.98 -4.62 -8.09 -4.51 -8.16 -4.39 -8.21 -4.27 -8.24 -4.14 -8.23 -4.01 -8.21 -3.88 -8.14 -3.74 -8.06 -3.6 -7.95 -3.45 -7.82 -3.31 -7.65 -3.16 -7.46 -3.02 -7.24 -2.85 -7 -2.7 -6.74 -2.55 -6.43 -2.38 -6.12 -2.21 -5.77 -2.05 -5.4 -1.88 -5 -1.72 -4.57 -1.53 -4.12 -1.37 -3.65 -1.18 -3.14 -1.01 -2.61 -0.82 -2.07 -0.64 -1.47 -0.45 -0.89 -0.26 -0.21 -0.07 28.32 -12.98zm-43.25 -19.57l8.52 -18.81 19.81 5.83 -28.33 12.98z"/>
    <path id="1" class="fil3" d="M1241.19 468.63c-2.3,5.08 58.05,44.07 65.23,126.14 7.15,82.04 9.58,188.12 114.47,220.67 87.38,27.13 158.08,-94.62 94.9,-189.63 -17.01,-25.58 -44.79,-48.79 -76.28,-69.04 -85.45,-54.94 -198.32,-88.14 -198.32,-88.14z"/>
   </g>
   <path class="fil4" d="M1295.65 486.92c27.62,18.06 53.18,77.94 74.11,114.31 -16.43,3.36 -28.29,7.37 -35.59,12.05 -9.66,6.19 -13.07,14.09 -10.21,23.7 1.16,3.87 2.74,7.37 4.74,10.49 6.59,10.29 16.39,16.48 29.4,18.6 13.01,2.11 26.37,2.18 40.06,0.22 -2.88,3.39 -4.88,5.77 -5.98,7.13 -1.16,1.63 -2.31,3.35 -3.45,5.18 -1.13,1.83 -1.91,3.1 -2.34,3.81 -6.1,10.73 -9.51,22.65 -10.23,35.76 -0.73,13.11 3.55,26.91 12.84,41.41 8.4,13.1 17.17,21.99 26.33,26.68 9.17,4.68 17.61,6.53 25.33,5.54 7.72,-0.99 14.23,-3.19 19.54,-6.58 7.79,-5 14.7,-10.53 20.71,-16.58 6.02,-6.05 10.77,-15.37 14.26,-27.94 3.49,-12.57 2.89,-28.36 -1.8,-47.34 -2.35,-9.49 -6.87,-19.47 -13.56,-29.91 -1.5,-2.34 -2.73,-4.08 -3.68,-5.23 3.59,-5.38 6.41,-9.38 8.46,-12.02 4.11,-5.93 6.31,-11.69 6.59,-17.25 0.28,-5.57 -1.08,-10.69 -4.07,-15.37 -3.8,-5.93 -9.32,-10.25 -16.57,-12.97 -7.24,-2.73 -13.78,-2.99 -19.63,-0.78 0.1,0.15 0.43,0.49 0.98,1.01 0.56,0.53 1.14,1.26 1.74,2.19 1.69,2.65 2.58,6.27 2.65,10.84 0.07,4.57 -1.67,10.09 -5.23,16.55 -1.49,3.15 -3.49,6.74 -5.97,10.75 -2.54,4.27 -6.37,10.14 -11.49,17.59 -14.14,20.5 -17.91,35.89 -11.32,46.18 2.8,4.37 7.05,7.47 12.74,9.32 5.69,1.85 11.37,2.56 17.03,2.12 5.66,-0.44 9.61,-1.48 11.85,-3.14 -1.37,-1.1 -2.51,-2.35 -3.4,-3.76 -4.7,-7.32 -2.35,-19.61 7.06,-36.85 1.48,3.01 2.39,5.28 2.72,6.83 1.58,3.83 3.19,9.61 4.85,17.34 1.03,5.72 0.67,12.11 -1.08,19.17 -1.74,7.06 -4.44,13.57 -8.09,19.54 -3.65,5.97 -7.74,10.4 -12.26,13.3 -6.71,4.29 -13.18,4.49 -19.43,0.57 -6.34,-4.07 -11.52,-9.22 -15.51,-15.46 -8.1,-12.63 -11.38,-29.76 -9.86,-51.41 0.01,-0.67 0.13,-1.95 0.34,-3.85 0.21,-1.89 0.44,-3.69 0.67,-5.38 0.31,-2.61 0.59,-4.66 0.85,-6.15 0.25,-1.48 0.49,-2.4 0.7,-2.76l-2.64 -7.21c0.1,0.15 -3.37,0.67 -10.39,1.54 -7.03,0.88 -14.49,0.99 -22.39,0.33 -7.9,-0.65 -14.77,-2.63 -20.62,-5.92 -3.61,-1.86 -6.07,-3.81 -7.37,-5.83 -1.5,-2.34 -0.84,-4.41 1.96,-6.21 2.81,-1.8 7.45,-3.4 13.92,-4.79 6.47,-1.4 16.05,-3.19 28.72,-5.38l1.47 -0.28c2.39,-0.26 4.59,-0.92 6.6,-1.99l0.08 -0.04 0.03 -0.02 0.12 -0.06c3.94,-2.11 8.59,-6.39 11.08,-15.99 15.23,-61.84 -62.23,-99.05 -116.37,-125.6z"/>
   <path class="fil0" d="M1252.1 443.04c69.5,24.11 212.01,104.32 271.76,90.37 84.85,-19.82 72.42,-209.72 75.11,-236.67 11.11,21.78 18.74,76.33 15.53,131.18 -1.39,23.99 -6.5,21.12 18.05,17.46l16.82 -2.16c3.98,-0.73 10.3,-1.45 18.99,-2.17l2.17 -0.55c2.89,-42.32 4.34,-74.88 4.34,-97.66 0,-11.94 -0.53,-20.62 -1.62,-26.05 1.09,-0.35 3.7,-0.81 7.86,-1.36 4.16,-0.53 8.76,-0.81 13.83,-0.81 17,0 31.92,4.34 44.77,13.03 12.84,8.67 19.26,24.77 19.26,48.28l-0.54 9.77 -2.71 47.75 15.2 -0.55c3.96,-0.35 9.57,-0.54 16.81,-0.54l14.65 -0.54 11.39 0 9.78 0 1.07 16.82c-0.36,0 -1.35,0.27 -2.98,0.81 -1.63,0.55 -3.71,1 -6.24,1.36l-11.4 1.63 -14.09 2.17 -17.37 2.16 -17.9 2.17c-1.45,28.59 -2.55,60.06 -3.26,94.42l0 51c0,35.08 1.26,61.22 3.79,78.4 2.54,17.19 8.14,25.77 16.82,25.77 4.71,0 10.13,-2.52 16.29,-7.59 10.48,-8.68 22.14,-22.97 34.99,-42.86 12.84,-19.9 23.96,-38.9 33.37,-56.98 9.4,-18.07 15.37,-29.84 17.9,-35.26l4.6 3.34c-1.5,-1.33 -2.78,-2.71 -3.79,-4.16 -4.16,-5.96 -6.24,-13.29 -6.24,-21.97 0,-2.53 0.36,-7.05 1.09,-13.56l0.53 -13.03c0,-6.14 -0.72,-11.39 -2.16,-15.73 1.09,-0.36 3.43,-1.17 7.06,-2.45 3.61,-1.26 8.22,-2.52 13.83,-3.79 5.61,-1.26 11.29,-1.9 17.09,-1.9 11.21,0 20.16,3.25 26.86,9.76 6.69,6.52 9.48,17.73 8.41,33.65 -0.36,6.15 2.25,10.04 7.87,11.66 5.59,1.63 10.75,2.44 15.45,2.44 17.37,-1.43 34.01,1.9 49.92,10.04 15.91,8.14 23.88,24.88 23.88,50.18 0,2.54 -0.37,7.06 -1.08,13.57 -0.74,7.24 -2.18,17.73 -4.34,31.47 -5.43,41.24 -8.15,69.63 -8.15,85.18 0,19.53 3.44,29.31 10.31,29.31 4.34,0 10.49,-4.17 18.45,-12.49 12.66,-13.39 24.06,-33 34.18,-58.87 4.16,-10.61 7.9,-21.09 11.39,-31.5 -0.42,-0.38 -0.95,-0.65 -1.35,-1.05 -8.5,-8.5 -12.75,-19.26 -12.75,-32.28 0,-12.66 3.61,-25.41 10.85,-38.25 7.23,-12.83 17.18,-23.07 29.84,-30.66 19.16,-11.93 40.51,-17.9 64.02,-17.9 8.33,0 16.09,0.73 23.34,2.17 0.35,-3.98 0.54,-9.77 0.54,-17.36 0,-7.96 -0.54,-14.29 -1.63,-19 1.09,-0.35 3.7,-0.81 7.87,-1.36 4.16,-0.53 8.77,-0.81 13.84,-0.81 16.99,0 31.92,4.35 44.75,13.03 12.85,8.68 19.27,24.77 19.27,48.29l-0.54 9.76c-1.82,24.6 -2.72,43.95 -2.72,58.05 0,37.27 5.25,55.89 15.74,55.89 5.07,0 11.58,-4.52 19.53,-13.56 14.47,-16.28 26.5,-33.18 36.09,-50.74 0.43,-0.79 0.78,-1.5 1.2,-2.28 1.06,-15.85 3.03,-34.5 6.12,-56.59 2.53,-16.99 3.8,-28.57 3.8,-34.72 0,-2.89 -0.19,-4.69 -0.55,-5.42 1.09,-0.36 3.35,-0.72 6.79,-1.09 3.43,-0.35 7.87,-0.54 13.29,-0.54 14.46,0 26.94,2.9 37.43,8.68 10.5,5.79 15.74,16.46 15.73,32.01 0.01,3.99 -0.18,7.06 -0.53,9.23 -4.34,28.21 -6.51,51.54 -6.51,69.98 0,25.33 5.24,37.99 15.73,37.99 4.7,0 10.67,-2.53 17.91,-7.6 11.57,-7.95 23.06,-20.17 34.45,-36.63 0.75,-1.08 1.37,-2.16 2.11,-3.24 -1.58,-20.89 -2.39,-44.97 -2.39,-72.44 0,-51 3.07,-113.4 9.23,-187.19 2.16,-21.71 3.98,-37.08 5.42,-46.12 1.45,-9.04 4.07,-16.46 7.87,-22.25 3.8,-5.78 9.5,-8.49 17.09,-8.14 3.26,0 8.32,0.82 15.19,2.44 6.87,1.63 14.28,5.16 22.25,10.58 10.49,6.88 20.08,17.01 28.75,30.39 9.41,16.28 15.74,35.27 19,56.97 1.8,12.67 2.72,23.52 2.72,32.56 0,26.41 -5.63,49.74 -16.83,69.99 -6.51,11.94 -14.47,22.61 -23.88,32.01 -1.08,29.67 -1.62,57.34 -1.62,83.02l0 23.32c0.72,11.95 1.81,20.27 3.25,24.96 1.45,4.71 3.81,7.05 7.06,7.05 2.89,0 8.31,-2.51 16.28,-7.59 14.82,-9.39 28.12,-20.79 39.88,-34.19 10.13,-11.52 18.47,-22.28 25.26,-32.34 -13.72,-23.35 -20.66,-43.7 -20.66,-60.97 0,-17 5.15,-30.66 15.47,-40.96 10.31,-10.32 21.97,-18 34.99,-23.07 13.03,-5.05 19.54,-7.05 19.54,-5.96 -2.54,6.15 -3.81,12.84 -3.81,20.07 0,11.22 2.9,23.69 8.69,37.44 5.77,13.75 13.74,28.94 23.88,45.58 14.1,-7.96 29.83,-11.94 47.2,-11.94 13.37,0 26.31,1.99 38.79,5.97 12.48,3.98 23.24,8.33 32.28,13.02 9.04,4.71 13.58,7.24 13.58,7.59l2.16 13.03c-2.16,-1.09 -7.42,-3.53 -15.74,-7.32 -8.32,-3.8 -18.63,-7.42 -30.92,-10.86 -12.3,-3.43 -24.24,-5.15 -35.81,-5.15 -17.01,0 -30.38,4.34 -40.15,13.02 8.68,13.02 15.36,22.61 20.07,28.76 20.62,30.37 35.99,54.8 46.12,73.24 10.12,18.45 15.19,35.45 15.19,51 0,18.81 -9.4,33.81 -28.21,45.03 -18.81,9.41 -35.46,14.11 -49.91,14.12 -5.07,0 -10.15,-0.56 -15.2,-1.63l-0.54 0c-1.09,0 -1.82,-0.19 -2.18,-0.55 -4.7,-0.73 -9.22,-2 -13.56,-3.8 -5.07,-1.45 -11.39,-4.53 -18.99,-9.23 -8.33,-5.41 -15.19,-11.57 -20.62,-18.44 -6.87,-8.69 -11.93,-18.45 -15.19,-29.29l-0.54 -4.34 -0.55 -1.09 0 -1.08 -0.54 -2.17 -0.54 -1.63 0 -2.17c-0.37,-1.09 -0.54,-2.53 -0.54,-4.35 -1.08,-5.42 -1.63,-11.2 -1.63,-17.36 0,-13.02 1.44,-25.13 4.34,-36.35 3.26,-11.22 7.95,-22.61 14.11,-34.19l1.08 -1.63c-3.78,-5.18 -7.66,-10.8 -11.59,-16.6 -1.8,2.68 -3.71,5.48 -5.77,8.46 -15.18,22.08 -33.18,43.68 -53.98,64.85 -20.8,21.16 -41.51,35.54 -62.12,43.14 -5.43,2.53 -8.14,3.79 -8.14,3.79 0,0 -3.26,0 -9.77,0 -1.09,0.37 -2.9,0.54 -5.43,0.54l-0.54 0c-15.68,0 -26.87,-18.71 -33.61,-55.99 -23.1,33.52 -56.09,50.57 -99.31,50.57 -19.53,0 -33.2,-7.6 -40.97,-22.78 -6.59,-12.89 -10.22,-29.64 -11.22,-49.8 -9.74,14.89 -20.8,29.24 -33.26,43 -24.43,26.96 -53.09,40.43 -86.01,40.43 -17,0 -28.85,-6.7 -35.54,-20.08 -6.69,-13.37 -10.03,-31.82 -10.03,-55.34 0,-10.12 0.17,-17.72 0.54,-22.79 -20.62,20.62 -42.68,30.93 -66.2,30.93 -8.04,0 -15.06,-1.02 -21.2,-2.93 -10.9,29.96 -26.84,59.7 -47.97,89.19 -26.96,37.62 -55.99,55.7 -87.08,54.26 -15.57,-0.72 -26.6,-7.86 -33.12,-21.43 -6.5,-13.56 -9.76,-31.93 -9.76,-55.06 0,-14.84 1,-30.57 2.99,-47.21 1.98,-16.63 4.79,-36.53 8.41,-59.68 2.53,-17.01 4.7,-33.46 6.51,-49.38 -23.88,-0.35 -42.14,-2.52 -54.8,-6.5 -7.86,-2.47 -13.88,-5.37 -18.45,-8.61l4.36 3.18c0,3.99 -8.5,22.97 -25.51,56.96 -17.01,34.01 -38.61,64.94 -64.84,92.79 -26.23,27.85 -55.07,40.51 -86.54,37.98 -16.65,-0.73 -28.31,-15.65 -34.99,-44.76 -6.7,-29.11 -10.04,-68.11 -10.04,-116.92 0,-37.62 1.63,-82.48 4.88,-134.57l-17.91 1.09c-7.95,0 -13.75,0.19 -17.36,0.54 -24.13,0 -22.4,-5.58 -27.05,15.26 -9.67,43.27 -28.83,78.89 -61.93,87.35 -21.79,5.57 -52.45,-0.75 -78.21,-7.64 -63.13,-22.82 -200.25,-92.04 -289.93,-93.78 -203.16,-3.92 -334.59,-83.97 -120.89,-322.38 -8,34.29 -115.82,152.8 -65.66,233.39 16.17,25.96 48.96,39.79 90.18,48.43 28.64,6.01 70.31,7.59 97.68,8.92 75.52,3.69 55.29,9.8 74.71,-34.51l-0.98 40.37zm1354.91 -58.97l0 0c5.43,7.97 9.4,17.91 11.94,29.84 2.52,11.94 3.61,21.89 3.26,29.84 -0.38,7.97 -0.55,12.13 -0.55,12.49 -2.89,21.7 -10.49,41.06 -22.79,58.05 1.81,-38.7 4.52,-82.11 8.14,-130.22zm-399.87 223.54l0 0c-7.96,8.32 -16.56,15.56 -25.77,21.7 -9.23,6.16 -17.1,9.23 -23.61,9.23 -9.41,0 -14.11,-6.32 -14.11,-18.99 0,-16.99 7.33,-28.39 21.98,-34.18 14.65,-5.78 29.74,-8.68 45.31,-8.68 -1.1,6.87 -2.36,17.19 -3.8,30.92zm564.27 153.01l0 0c-1.81,6.51 -5.8,9.76 -11.94,9.76 -3.99,0 -7.59,-0.72 -10.85,-2.18l-3.25 -1.62c-6.51,-4.33 -11.39,-8.32 -14.65,-11.93 -5.07,-6.16 -8.51,-12.67 -10.32,-19.54l-3.25 -13.01 -1.63 -14.11c-0.36,-9.4 0.54,-19.34 2.72,-29.85 1.8,-7.95 4.16,-15 7.05,-21.16 17.71,23.53 30.19,41.34 37.43,53.45 7.24,12.13 10.85,24.15 10.85,36.08 0,5.06 -0.72,9.77 -2.16,14.11z"/>
   <path class="fil0" d="M1515.58 448.38c-7.01,-2.71 -10.5,-10.6 -7.78,-17.61 2.72,-7.02 10.58,-10.49 17.59,-7.79 7.01,2.7 10.48,10.6 7.8,17.6 -2.71,7.02 -10.6,10.49 -17.61,7.8l0 0z"/>
   <path class="fil0" d="M1371.25 395.65c-7.01,-2.7 -10.5,-10.59 -7.78,-17.61 2.72,-7.02 10.58,-10.49 17.59,-7.78 7.01,2.69 10.49,10.59 7.81,17.59 -2.72,7.02 -10.61,10.5 -17.62,7.8l0 0z"/>
   <path class="fil0" d="M1384.02 463.04c-7.01,-2.71 -10.5,-10.6 -7.78,-17.61 2.72,-7.02 10.58,-10.49 17.59,-7.79 7.01,2.7 10.48,10.6 7.8,17.6 -2.72,7.02 -10.6,10.49 -17.61,7.8l0 0z"/>
   <path class="fil0" d="M1487.46 365.36c-7.01,-2.71 -10.5,-10.6 -7.78,-17.61 2.71,-7.02 10.58,-10.49 17.59,-7.79 7.01,2.7 10.48,10.59 7.8,17.59 -2.72,7.02 -10.6,10.5 -17.61,7.81l0 0z"/>
   <path class="fil0" d="M1446.05 426.07c-7.01,-2.71 -10.5,-10.6 -7.78,-17.61 2.72,-7.02 10.58,-10.49 17.59,-7.79 7.01,2.7 10.48,10.59 7.8,17.6 -2.71,7.01 -10.6,10.49 -17.61,7.8l0 0z"/>
   <path class="fil0" d="M1039.03 313.91c7.19,2.2 14.8,-1.85 16.99,-9.05 2.2,-7.2 -1.84,-14.79 -9.03,-16.99 -7.17,-2.2 -14.78,1.86 -17,9.02 -2.19,7.2 1.86,14.81 9.04,17.02l0 0z"/>
   <path class="fil0" d="M1163.53 347.18c7.19,2.2 14.8,-1.85 16.99,-9.05 2.2,-7.2 -1.84,-14.78 -9.02,-16.98 -7.18,-2.21 -14.79,1.85 -17.01,9.02 -2.19,7.2 1.86,14.8 9.04,17.01l0 0z"/>
   <path class="fil0" d="M1124.89 396.3c7.19,2.2 14.8,-1.85 16.99,-9.05 2.2,-7.2 -1.84,-14.78 -9.02,-16.99 -7.18,-2.2 -14.79,1.86 -17.01,9.02 -2.19,7.2 1.87,14.81 9.04,17.02l0 0z"/>
   <path class="fil0" d="M1097.21 263.62c7.18,2.2 14.8,-1.85 16.99,-9.05 2.2,-7.2 -1.85,-14.78 -9.03,-16.98 -7.18,-2.21 -14.79,1.85 -17,9.02 -2.2,7.2 1.86,14.8 9.04,17.01l0 0z"/>
   <path class="fil0" d="M1056.84 380.51c7.19,2.2 14.8,-1.85 17,-9.05 2.19,-7.2 -1.85,-14.78 -9.03,-16.99 -7.18,-2.2 -14.79,1.86 -17.01,9.03 -2.19,7.19 1.87,14.8 9.04,17.01l0 0z"/>
   <path class="fil0" d="M1098.93 328.92c7.18,2.2 14.8,-1.85 16.99,-9.05 2.2,-7.2 -1.85,-14.78 -9.03,-16.98 -7.18,-2.21 -14.79,1.86 -17,9.02 -2.2,7.2 1.86,14.8 9.04,17.01l0 0z"/>
   <path class="fil0" d="M1484.19 489.03c-7.01,-2.71 -10.5,-10.6 -7.78,-17.61 2.72,-7.02 10.58,-10.49 17.59,-7.79 7.01,2.7 10.49,10.59 7.81,17.6 -2.72,7.01 -10.61,10.49 -17.62,7.8l0 0z"/>
   <path class="fil2" d="M556.14 500.73c11.21,0 20.8,-3.98 28.75,-11.94 7.96,-7.95 11.94,-17.54 11.94,-28.75 0,-11.21 -3.98,-20.81 -11.94,-28.76 -7.95,-7.96 -17.54,-11.94 -28.75,-11.94 -11.22,0 -20.81,3.98 -28.76,11.94 -7.96,7.95 -11.93,17.55 -11.93,28.76 0,11.21 3.97,20.8 11.93,28.75 7.95,7.96 17.54,11.94 28.76,11.94z"/>
   <path class="fil2" d="M2419.29 500.73c11.2,0 20.79,-3.98 28.76,-11.94 7.95,-7.95 11.93,-17.54 11.93,-28.75 0,-11.21 -3.98,-20.81 -11.93,-28.76 -7.97,-7.96 -17.56,-11.94 -28.76,-11.94 -11.22,0 -20.81,3.98 -28.76,11.94 -7.96,7.95 -11.94,17.55 -11.94,28.76 0,11.21 3.98,20.8 11.94,28.75 7.95,7.96 17.54,11.94 28.76,11.94z"/>
   <path class="fil5" d="M468.74 932.77c0,-3.23 -1.15,-5.73 -3.41,-7.48 -2.27,-1.72 -6.35,-3.56 -12.26,-5.48 -5.91,-1.94 -10.58,-3.83 -14.02,-5.67 -9.38,-5.08 -14.07,-11.91 -14.07,-20.51 0,-4.46 1.26,-8.45 3.78,-11.95 2.5,-3.51 6.12,-6.24 10.83,-8.21 4.7,-1.96 9.99,-2.95 15.86,-2.95 5.91,0 11.15,1.07 15.77,3.22 4.63,2.13 8.21,5.15 10.76,9.04 2.54,3.91 3.82,8.33 3.82,13.29l-17 0c0,-3.78 -1.21,-6.7 -3.59,-8.81 -2.38,-2.1 -5.73,-3.14 -10.05,-3.14 -4.15,0 -7.38,0.87 -9.7,2.63 -2.31,1.77 -3.45,4.09 -3.45,6.97 0,2.68 1.35,4.94 4.05,6.76 2.71,1.8 6.68,3.51 11.95,5.1 9.68,2.92 16.73,6.52 21.16,10.84 4.42,4.32 6.63,9.69 6.63,16.12 0,7.14 -2.69,12.76 -8.12,16.83 -5.4,4.06 -12.68,6.1 -21.82,6.1 -6.38,0 -12.15,-1.16 -17.38,-3.49 -5.21,-2.32 -9.19,-5.52 -11.94,-9.57 -2.74,-4.04 -4.11,-8.75 -4.11,-14.08l17.08 0c0,9.26 5.44,13.89 16.35,13.89 4.02,0 7.2,-0.83 9.47,-2.5 2.26,-1.64 3.41,-3.97 3.41,-6.95zm212.14 -17.9c0,8.14 -1.45,15.27 -4.32,21.4 -2.88,6.14 -6.99,10.87 -12.34,14.2 -5.36,3.33 -11.5,5 -18.41,5 -6.86,0 -12.96,-1.65 -18.33,-4.94 -5.38,-3.29 -9.54,-8 -12.49,-14.12 -2.94,-6.1 -4.43,-13.13 -4.47,-21.09l0 -4.09c0,-8.13 1.45,-15.3 4.4,-21.5 2.92,-6.17 7.07,-10.92 12.41,-14.23 5.37,-3.31 11.48,-4.98 18.36,-4.98 6.89,0 13,1.67 18.36,4.98 5.34,3.31 9.49,8.06 12.42,14.23 2.94,6.2 4.41,13.35 4.41,21.44l0 3.7zm-17.26 -3.75c0,-8.68 -1.54,-15.26 -4.64,-19.78 -3.12,-4.51 -7.54,-6.76 -13.29,-6.76 -5.71,0 -10.11,2.23 -13.23,6.68 -3.1,4.46 -4.66,10.98 -4.7,19.59l0 4.02c0,8.45 1.54,15.01 4.66,19.66 3.1,4.67 7.56,6.99 13.39,6.99 5.71,0 10.09,-2.25 13.17,-6.74 3.06,-4.47 4.61,-11.02 4.64,-19.62l0 -4.04zm207.91 -39.44l0 54.45c0,9.04 -2.83,16.19 -8.48,21.45 -5.66,5.25 -13.39,7.89 -23.19,7.89 -9.64,0 -17.31,-2.56 -22.99,-7.67 -5.67,-5.1 -8.55,-12.13 -8.67,-21.05l0 -55.07 17.02 0 0 54.52c0,5.43 1.3,9.36 3.9,11.84 2.59,2.47 6.17,3.71 10.74,3.71 9.57,0 14.43,-5.03 14.59,-15.08l0 -54.99 17.08 0zm191.89 13.83l-25.32 0 0 68.8 -17.02 0 0 -68.8 -24.96 0 0 -13.83 67.3 0 0 13.83zm192.68 68.8l-17.03 0 0 -35.45 -33.19 0 0 35.45 -17.03 0 0 -82.63 17.03 0 0 33.47 33.19 0 0 -33.47 17.03 0 0 82.63zm292.96 -16.97l-29.85 0 -5.67 16.97 -18.09 0 30.74 -82.63 15.78 0 30.93 82.63 -18.11 0 -5.73 -16.97zm-25.26 -13.83l20.67 0 -10.38 -30.95 -10.29 30.95zm222.24 -3.02l-32.67 0 0 33.82 -17.02 0 0 -82.63 53.78 0 0 13.83 -36.76 0 0 21.27 32.67 0 0 13.71zm160.26 3.6l-13.56 0 0 30.22 -17.02 0 0 -82.63 30.7 0c9.76,0 17.29,2.17 22.58,6.53 5.31,4.36 7.94,10.5 7.94,18.46 0,5.63 -1.22,10.34 -3.66,14.1 -2.44,3.77 -6.12,6.78 -11.08,9l17.88 33.74 0 0.8 -18.29 0 -15.49 -30.22zm-13.56 -13.83l13.73 0c4.28,0 7.6,-1.08 9.94,-3.25 2.34,-2.17 3.52,-5.17 3.52,-8.99 0,-3.89 -1.12,-6.93 -3.33,-9.16 -2.2,-2.22 -5.59,-3.35 -10.18,-3.35l-13.68 0 0 24.75zm190.98 44.05l-17 0 0 -82.63 17 0 0 82.63zm196.36 -27.49c-0.64,8.89 -3.91,15.88 -9.84,21 -5.9,5.09 -13.71,7.65 -23.39,7.65 -10.6,0 -18.92,-3.57 -25.01,-10.71 -6.06,-7.13 -9.1,-16.93 -9.1,-29.38l0 -5.06c0,-7.94 1.4,-14.95 4.21,-21.01 2.78,-6.05 6.79,-10.69 11.98,-13.93 5.21,-3.23 11.26,-4.86 18.13,-4.86 9.55,0 17.22,2.56 23.05,7.65 5.83,5.12 9.2,12.28 10.09,21.52l-17.03 0c-0.4,-5.35 -1.89,-9.22 -4.45,-11.62 -2.54,-2.4 -6.43,-3.6 -11.66,-3.6 -5.67,0 -9.92,2.03 -12.72,6.1 -2.83,4.06 -4.26,10.38 -4.34,18.94l0 6.23c0,8.93 1.33,15.46 4.05,19.58 2.71,4.13 6.97,6.2 12.8,6.2 5.25,0 9.18,-1.2 11.77,-3.58 2.58,-2.4 4.07,-6.1 4.46,-11.12l17 0zm173.57 10.52l-29.85 0 -5.67 16.97 -18.09 0 30.74 -82.63 15.78 0 30.93 82.63 -18.11 0 -5.73 -16.97zm-25.26 -13.83l20.67 0 -10.38 -30.95 -10.29 30.95z"/>
   <path class="fil0" d="M1479.64 118.23c-33.74,-67.31 -179.41,-107.7 -228.34,-86.58 74.34,16.17 118.79,15.17 182.19,69.97 13.95,12.05 13.24,17.38 25.22,25.58 8.86,6.07 28.36,5.82 20.93,-8.97zm15.45 116.87c-49.13,85.75 -163.87,69.79 -215.12,101.54 -2.82,-22.36 4.93,-54.34 5.74,-76.2l-19.98 71.58c-62.73,-77.06 -111.42,-75.25 -120.47,-184.95 13.96,8.95 12.9,22.43 55.74,38.56 74.96,28.21 79,-41.78 63.73,-74.7 -9.28,-19.98 -28.5,-24.49 -46.23,-23.31 -21.63,1.42 -16.15,17.41 -9.13,32.71 13.87,30.22 -14.93,37.35 -37.38,29.09 -59.06,-21.73 3.06,-178.3 162.05,-144.72 87.08,18.39 203.97,77.15 182.62,168.83 -17.67,75.88 -108.13,55.31 -90.63,14.63 4.26,-9.91 10.92,-15.55 12.67,-27.76 18.57,-129.3 -248.44,137.74 56.39,74.7z"/>
  </g>
 </g>
</svg>
